<?xml version="1.0" standalone="no"?>
<!DOCTYPE svg PUBLIC "-//W3C//DTD SVG 20010904//EN"
 "http://www.w3.org/TR/2001/REC-SVG-20010904/DTD/svg10.dtd">
<svg version="1.0" xmlns="http://www.w3.org/2000/svg"
 width="current" height="current" viewBox="0 0 512.000000 512.000000"
 preserveAspectRatio="xMidYMid meet">

<g transform="translate(0.000000,512.000000) scale(0.100000,-0.100000)"
fill="#000000" stroke="none">
<path d="M905 4215 c-17 -16 -25 -35 -25 -57 0 -30 64 -97 782 -815 l783 -783
-783 -783 c-718 -718 -782 -785 -782 -815 0 -44 38 -82 82 -82 30 0 97 64 815
782 l783 783 783 -783 c718 -718 785 -782 815 -782 44 0 82 38 82 82 0 30 -64
97 -782 815 l-783 783 783 783 c718 718 782 785 782 815 0 44 -38 82 -82 82
-30 0 -97 -64 -815 -782 l-783 -783 -783 783 c-718 718 -785 782 -815 782 -22
0 -41 -8 -57 -25z"/>
</g>
</svg>
