<?xml version="1.0" standalone="no"?>
<!DOCTYPE svg PUBLIC "-//W3C//DTD SVG 20010904//EN"
 "http://www.w3.org/TR/2001/REC-SVG-20010904/DTD/svg10.dtd">
<svg version="1.0" xmlns="http://www.w3.org/2000/svg"
 width="current" height="current" viewBox="0 0 2340 780"
 preserveAspectRatio="none">

<g transform="translate(0.000000,780.000000) scale(0.100000,-0.100000)"
fill="#000000" stroke="none">
<path d="M1963 6352 c-15 -9 -42 -83 -53 -142 -5 -25 -15 -67 -24 -95 -35
-116 -48 -163 -62 -215 -24 -90 -35 -131 -60 -215 -56 -185 -64 -213 -79 -270
-41 -150 -80 -288 -106 -370 -20 -64 -61 -213 -85 -309 -8 -32 -13 -65 -10
-72 7 -19 479 -20 493 -1 5 6 15 35 21 62 13 54 47 165 92 310 16 50 34 114
40 143 18 81 22 82 248 82 189 0 193 0 216 -23 14 -14 26 -42 30 -68 4 -24 20
-84 36 -134 44 -141 60 -200 60 -226 0 -14 6 -33 14 -44 7 -11 17 -36 21 -55
13 -61 9 -60 230 -60 150 0 205 3 213 13 6 6 20 49 31 94 12 45 26 95 32 110
8 22 3 48 -26 142 -20 64 -43 141 -51 171 -9 30 -22 75 -29 100 -7 25 -23 79
-35 120 -11 41 -26 92 -32 113 l-12 38 76 77 c42 42 89 92 104 110 16 19 103
111 194 205 l166 172 23 85 c34 127 34 129 21 145 -10 13 -50 15 -238 15
l-225 0 -41 -46 c-23 -25 -86 -94 -141 -154 -175 -189 -249 -271 -264 -293
-25 -38 -102 -107 -125 -112 -11 -3 -88 -4 -171 -3 l-150 3 1 35 c1 19 6 49
12 65 13 36 65 209 86 285 8 30 19 69 24 85 22 65 29 114 18 125 -12 12 -464
14 -483 2z M3932 6348 c-5 -7 -14 -29 -20 -48 -28 -91 -52 -170 -67 -225 -9 -33
-26 -89 -37 -125 -11 -36 -33 -112 -48 -170 -26 -97 -60 -217 -112 -395 -11
-38 -23 -86 -27 -105 -4 -19 -17 -62 -29 -95 -11 -33 -23 -76 -27 -95 -10 -51
-35 -140 -50 -175 -12 -28 -50 -168 -62 -227 -4 -22 -1 -29 15 -35 11 -5 125
-6 253 -3 l233 5 29 105 c16 58 33 119 39 135 5 17 19 62 30 100 46 165 72
241 87 253 18 14 207 17 244 3 17 -7 40 -41 79 -118 30 -59 76 -146 103 -193
26 -47 61 -110 77 -140 17 -30 35 -61 41 -68 5 -7 17 -27 26 -45 l16 -32 220
0 220 0 31 95 c50 150 50 140 -1 216 -25 36 -45 70 -45 73 0 4 -27 47 -60 95
-63 93 -76 136 -39 136 11 0 53 14 94 31 107 44 163 100 224 224 26 55 52 116
56 135 3 19 15 60 25 90 10 30 26 89 35 130 10 41 21 88 26 104 16 52 10 124
-16 193 -31 81 -61 115 -137 154 l-57 29 -679 0 c-532 0 -682 -3 -690 -12z
m1035 -480 c-11 -66 -39 -163 -51 -180 -12 -16 -42 -17 -326 -18 -372 -2 -354
-7 -320 97 13 37 29 83 36 101 l14 32 326 0 326 0 -5 -32z M5930 6341 c-5 -11 -17 -45 -25 -77 -8 -32 -19 -62 -25 -68 -5 -5
-10 -19 -10 -30 -1 -12 -19 -84 -41 -161 -22 -77 -46 -165 -54 -195 -12 -52
-24 -91 -80 -275 -14 -44 -39 -132 -55 -195 -33 -124 -37 -138 -70 -245 -46
-151 -72 -242 -86 -298 -8 -32 -19 -67 -24 -78 -6 -10 -8 -30 -4 -44 l6 -25
751 2 751 3 22 65 c68 206 108 355 101 375 -6 13 -68 15 -494 17 l-488 3 3 42
c1 23 11 62 22 87 l19 46 497 2 c430 3 498 5 504 18 14 26 37 94 50 140 7 25
20 72 31 105 10 33 20 83 21 110 l3 50 -488 3 c-529 2 -515 1 -489 55 6 12 13
36 17 52 3 17 13 40 21 53 l14 22 423 0 422 0 44 45 c24 25 47 45 51 45 5 0
31 24 59 53 41 42 55 66 72 122 11 39 27 92 36 119 8 27 12 55 9 62 -5 12
-127 14 -755 14 -729 0 -751 -1 -761 -19z M8283 6345 c-12 -8 -43 -48 -69 -88 -27 -39 -78 -112 -114 -161 -36
-50 -74 -104 -85 -122 -25 -41 -142 -212 -225 -329 -35 -49 -102 -146 -148
-215 -47 -69 -99 -143 -117 -165 -17 -22 -64 -89 -104 -150 -40 -60 -81 -119
-91 -130 -25 -28 -80 -136 -80 -158 0 -9 -6 -32 -14 -50 -7 -18 -16 -54 -20
-80 l-7 -47 263 2 263 3 22 40 c63 113 75 133 101 170 l28 40 343 3 c241 1
348 -1 357 -9 9 -8 14 -45 16 -127 l3 -117 236 -3 237 -2 16 34 c9 19 16 39
16 46 0 7 10 43 21 82 17 56 20 82 14 132 -13 114 -24 211 -40 356 -9 80 -20
174 -25 210 -9 68 -28 237 -35 305 -2 22 -9 76 -15 120 -14 100 -27 194 -39
309 -6 48 -15 94 -22 102 -18 22 -655 21 -686 -1z m254 -520 c3 -44 20 -293
28 -395 3 -36 1 -72 -4 -80 -8 -12 -44 -16 -189 -18 -221 -4 -225 -1 -165 86
22 31 50 76 61 98 12 23 51 86 88 140 36 55 73 112 81 129 48 92 96 111 100
40z M9796 6328 c-14 -31 -39 -114 -72 -233 -22 -84 -55 -199 -64 -225 -5
-14 -16 -54 -25 -90 -15 -59 -26 -97 -84 -295 -10 -33 -26 -89 -35 -125 -10
-36 -24 -87 -32 -115 -13 -46 -22 -79 -74 -255 -10 -36 -26 -91 -35 -122 -8
-32 -22 -82 -31 -111 -9 -30 -14 -65 -12 -78 l3 -24 242 -3 242 -2 15 27 c8
16 28 80 44 143 17 63 38 135 47 160 9 25 22 72 30 105 7 33 25 101 40 150 15
50 33 115 40 145 41 165 66 220 90 200 16 -13 33 -71 45 -155 5 -38 15 -92 20
-120 5 -27 15 -79 20 -115 6 -36 14 -78 19 -95 5 -16 12 -56 15 -89 11 -98 7
-96 160 -96 113 0 137 3 154 18 19 15 417 540 470 619 13 20 31 33 43 33 19 0
20 -4 16 -37 -8 -54 -33 -151 -51 -198 -25 -65 -66 -207 -66 -227 0 -11 -11
-52 -24 -91 -13 -40 -33 -106 -45 -147 -12 -41 -29 -98 -37 -126 -9 -27 -14
-61 -12 -75 l3 -24 245 0 245 0 12 25 c6 14 21 61 33 105 12 44 28 100 35 125
7 25 23 81 35 125 11 44 34 121 51 170 16 50 29 97 29 106 0 9 14 61 30 115
17 55 35 115 40 134 11 42 54 190 81 280 35 118 80 274 94 325 7 28 21 76 31
107 27 91 37 88 -276 88 l-268 0 -31 -26 c-17 -14 -31 -30 -31 -36 0 -6 -15
-27 -32 -48 -18 -20 -55 -66 -83 -101 -27 -35 -55 -68 -61 -74 -5 -5 -23 -27
-40 -49 -117 -154 -204 -265 -229 -292 -14 -15 -25 -31 -25 -35 0 -5 -8 -17
-17 -27 -10 -9 -33 -36 -51 -60 -55 -69 -109 -67 -129 5 -17 58 -54 222 -63
278 -7 44 -14 75 -49 215 -10 37 -27 123 -36 180 -12 71 -7 70 -312 70 l-273
0 -14 -32z"/>
</g>
</svg>
