<?xml version="1.0" standalone="no"?>
<!DOCTYPE svg PUBLIC "-//W3C//DTD SVG 20010904//EN"
 "http://www.w3.org/TR/2001/REC-SVG-20010904/DTD/svg10.dtd">
<svg version="1.0" xmlns="http://www.w3.org/2000/svg"
 width="current" height="current" viewBox="180 60 390 130"
 preserveAspectRatio="xMidYMid meet">

<g transform="translate(0.000000,260.000000) scale(0.100000,-0.100000)"
fill="#000000" stroke="none">
<path d="M1143 1768 c-14 -18 -21 -39 -50 -143 -39 -143 -55 -202 -147 -520
-47 -165 -84 -305 -81 -312 3 -10 39 -13 134 -13 134 0 161 4 161 24 0 13 77
281 90 314 9 21 15 22 129 22 83 0 121 -4 128 -12 5 -7 24 -67 42 -133 40
-148 53 -186 64 -202 13 -18 233 -18 244 0 4 6 16 39 25 72 l16 59 -54 190
c-29 104 -52 192 -49 195 7 12 118 133 210 229 78 81 92 102 108 154 10 33 16
66 13 74 -4 11 -33 14 -134 14 l-128 0 -129 -142 c-71 -79 -146 -160 -166
-180 l-37 -38 -96 0 c-80 0 -96 3 -96 15 0 9 16 71 36 138 46 155 54 189 48
199 -9 14 -270 10 -281 -4z"/>
<path d="M2282 1768 c-5 -7 -21 -56 -36 -108 -15 -52 -33 -115 -41 -140 -7
-25 -25 -88 -40 -140 -14 -52 -35 -125 -46 -162 -19 -67 -46 -163 -74 -263 -8
-27 -21 -74 -30 -104 -10 -31 -13 -57 -7 -63 5 -5 71 -7 147 -6 l138 3 13 40
c7 22 22 74 34 115 12 41 30 102 39 135 l18 60 59 3 c87 5 96 0 132 -70 45
-88 109 -203 138 -249 l25 -40 122 3 122 3 24 72 24 73 -62 96 c-34 53 -60
102 -58 108 3 6 25 17 49 24 95 28 141 92 193 272 55 190 40 279 -55 327 -44
22 -50 22 -431 23 -298 0 -389 -3 -397 -12z m608 -266 c0 -4 -9 -36 -21 -70
l-21 -62 -176 0 c-98 0 -183 4 -190 9 -11 7 -11 17 2 60 8 28 18 56 21 61 7
12 385 14 385 2z"/>
<path d="M3453 1772 c-10 -6 -47 -116 -76 -227 -3 -11 -17 -60 -31 -110 -54
-186 -64 -222 -85 -295 -12 -41 -37 -129 -56 -196 -19 -66 -35 -131 -35 -143
l0 -21 433 2 432 3 32 100 c18 55 36 114 39 132 l6 33 -286 0 c-281 0 -286 0
-286 20 0 11 7 36 14 55 l15 35 289 0 c267 0 290 1 295 18 23 74 57 199 57
210 0 9 -63 12 -283 12 -156 0 -286 2 -289 6 -3 3 2 26 11 52 l17 47 248 3
249 2 57 50 c52 45 59 56 79 125 12 42 19 80 16 85 -7 12 -844 13 -862 2z"/>
<path d="M4797 1757 c-12 -13 -48 -61 -80 -108 -90 -131 -274 -395 -337 -484
-141 -200 -160 -231 -180 -299 -11 -38 -17 -73 -14 -77 3 -5 70 -9 148 -9
l143 0 24 38 c14 20 33 53 43 73 15 29 27 38 55 43 52 9 364 7 378 -2 7 -4 13
-37 15 -77 l3 -70 133 -3 132 -3 14 33 c42 99 44 64 -29 663 -3 22 -10 83 -16
135 -6 52 -15 112 -20 133 l-10 37 -190 0 c-185 0 -190 -1 -212 -23z m163
-415 c6 -78 8 -147 5 -152 -9 -14 -225 -13 -225 1 0 6 14 30 30 54 17 24 30
46 30 49 0 17 134 206 141 199 5 -5 13 -73 19 -151z"/>
<path d="M5680 1758 c-26 -61 -272 -949 -267 -962 5 -13 28 -16 140 -16 96 0
138 4 145 13 8 10 100 323 142 484 11 44 24 60 35 43 7 -12 54 -252 62 -320 8
-68 15 -72 102 -66 42 2 77 5 78 5 1 1 69 89 150 196 93 124 150 192 156 186
11 -11 4 -39 -77 -320 -32 -107 -55 -200 -52 -208 7 -18 269 -19 284 0 5 6 45
134 87 282 42 149 104 362 137 474 32 112 57 210 54 217 -4 11 -38 14 -160 14
-132 0 -157 -2 -174 -17 -23 -21 -294 -362 -326 -410 -23 -35 -52 -51 -67 -36
-10 10 -23 64 -73 293 -42 190 -18 170 -206 170 -157 0 -161 0 -170 -22z"/>
</g>
</svg>
